<svg width="35" height="35" viewBox="0 0 35 35" fill="none" xmlns="http://www.w3.org/2000/svg">
<path d="M17.5 0C7.83594 0 0 7.83594 0 17.5C0 27.1641 7.83594 35 17.5 35C27.1641 35 35 27.1641 35 17.5C35 7.83594 27.1641 0 17.5 0ZM24.3945 22.8789L23.2773 24.4023C23.253 24.4355 23.2224 24.4636 23.1873 24.4849C23.1521 24.5062 23.1131 24.5203 23.0724 24.5265C23.0317 24.5327 22.9903 24.5307 22.9504 24.5208C22.9104 24.5109 22.8729 24.4932 22.8398 24.4688L16.3789 19.7578C16.3387 19.7289 16.3059 19.6908 16.2835 19.6466C16.2611 19.6024 16.2496 19.5535 16.25 19.5039V8.75C16.25 8.57812 16.3906 8.4375 16.5625 8.4375H18.4414C18.6133 8.4375 18.7539 8.57812 18.7539 8.75V18.418L24.3242 22.4453C24.4648 22.543 24.4961 22.7383 24.3945 22.8789Z" fill="#A5A5A5"/>
</svg>
