<svg width="35" height="35" viewBox="0 0 35 35" fill="none" xmlns="http://www.w3.org/2000/svg">
<path d="M28 28C26.0575 28 24.5 29.5575 24.5 31.5C24.5 32.4283 24.8687 33.3185 25.5251 33.9749C26.1815 34.6313 27.0717 35 28 35C28.9283 35 29.8185 34.6313 30.4749 33.9749C31.1313 33.3185 31.5 32.4283 31.5 31.5C31.5 30.5717 31.1313 29.6815 30.4749 29.0251C29.8185 28.3687 28.9283 28 28 28ZM0 0V3.5H3.5L9.8 16.7825L7.42 21.07C7.1575 21.56 7 22.1375 7 22.75C7 23.6783 7.36875 24.5685 8.02513 25.2249C8.6815 25.8813 9.57174 26.25 10.5 26.25H31.5V22.75H11.235C11.119 22.75 11.0077 22.7039 10.9256 22.6219C10.8436 22.5398 10.7975 22.4285 10.7975 22.3125C10.7975 22.225 10.815 22.155 10.85 22.1025L12.425 19.25H25.4625C26.775 19.25 27.93 18.515 28.525 17.4475L34.79 6.125C34.9125 5.845 35 5.5475 35 5.25C35 4.78587 34.8156 4.34075 34.4874 4.01256C34.1592 3.68437 33.7141 3.5 33.25 3.5H7.3675L5.7225 0M10.5 28C8.5575 28 7 29.5575 7 31.5C7 32.4283 7.36875 33.3185 8.02513 33.9749C8.6815 34.6313 9.57174 35 10.5 35C11.4283 35 12.3185 34.6313 12.9749 33.9749C13.6313 33.3185 14 32.4283 14 31.5C14 30.5717 13.6313 29.6815 12.9749 29.0251C12.3185 28.3687 11.4283 28 10.5 28Z" fill="#A5A5A5"/>
</svg>
