<svg width="78" height="36" viewBox="0 0 78 36" fill="none" xmlns="http://www.w3.org/2000/svg">
<path d="M1 28.6392L4.13402 34.1237L7.26804 32.5567L10.4021 34.1237L13.5361 28.6392L18.2371 30.9897C19.543 28.1168 22.468 22.3711 23.7216 22.3711C24.9753 22.3711 26.8557 24.9828 27.6392 26.2887C30.2509 20.0206 33.1237 2 33.1237 2C39.1306 6.9622 55.0619 16.1031 55.0619 16.1031C55.0619 16.1031 56.972 13.7155 58.1959 12.1856L61.3299 18.4536C62.6357 16.3643 65.7175 12.1856 67.5979 12.1856C69.4783 12.1856 73.866 14.5361 73.866 14.5361C74.9107 12.7079 77 8.89485 77 8.26804" stroke="#4033CC" stroke-width="2"/>
</svg>
