<svg width="30" height="35" viewBox="0 0 30 35" fill="none" xmlns="http://www.w3.org/2000/svg">
<path d="M0.549375 13.7335L13.6744 0.551363C14.026 0.198325 14.5028 0 15 0C15.4972 0 15.974 0.198325 16.3256 0.551363L29.4506 13.7335C29.8023 14.0866 29.9999 14.5655 30 15.0649V33.1168C30 33.6163 29.8025 34.0953 29.4508 34.4484C29.0992 34.8016 28.6223 35 28.125 35H18.75V21.8179H11.25V35H1.875C1.37772 35 0.900806 34.8016 0.549175 34.4484C0.197544 34.0953 0 33.6163 0 33.1168V15.0649C0.000106195 14.5655 0.19772 14.0866 0.549375 13.7335V13.7335Z" fill="#0E75EA"/>
</svg>
