<svg width="98" height="98" viewBox="0 0 98 98" fill="none" xmlns="http://www.w3.org/2000/svg">
<path d="M49 0C21.938 0 0 21.938 0 49C0 76.062 21.938 98 49 98V92C25.2518 92 6 72.7482 6 49C6 25.2518 25.2518 6 49 6V0Z" fill="#1CA37A"/>
<path d="M98 49C98 75.2235 77.4002 96.6357 51.5 97.9373V91.9285C74.0848 90.6338 92 71.9091 92 49C92 44.5874 91.3353 40.33 90.1007 36.3225L95.3218 32.9814C97.0574 38.0009 98 43.3904 98 49Z" fill="#402DD8"/>
<path d="M94.4233 30.5883C87.4422 13.3821 70.9685 1.04104 51.5 0.0626717V6.07146C68.8415 7.06559 83.4299 18.3361 89.269 33.8867L94.4233 30.5883Z" fill="#FF9A1C"/>
</svg>
