<svg width="34" height="35" viewBox="0 0 34 35" fill="none" xmlns="http://www.w3.org/2000/svg">
<path d="M0 11.6667C0 11.1297 0.435279 10.6944 0.972222 10.6944H6.80556C7.3425 10.6944 7.77778 11.1297 7.77778 11.6667V34.0278C7.77778 34.5647 7.3425 35 6.80556 35H0.972222C0.435279 35 0 34.5647 0 34.0278V11.6667Z" fill="#A5A5A5"/>
<path d="M12.6389 0.972223C12.6389 0.435279 13.0742 0 13.6111 0H19.4444C19.9814 0 20.4167 0.435279 20.4167 0.972222V34.0278C20.4167 34.5647 19.9814 35 19.4444 35H13.6111C13.0742 35 12.6389 34.5647 12.6389 34.0278V0.972223Z" fill="#A5A5A5"/>
<path d="M25.2778 20.4167C25.2778 19.8797 25.7131 19.4444 26.25 19.4444H32.0833C32.6203 19.4444 33.0556 19.8797 33.0556 20.4167V34.0278C33.0556 34.5647 32.6203 35 32.0833 35H26.25C25.7131 35 25.2778 34.5647 25.2778 34.0278V20.4167Z" fill="#A5A5A5"/>
</svg>
