<svg width="94" height="94" viewBox="0 0 94 94" fill="none" xmlns="http://www.w3.org/2000/svg">
<path d="M7.83333 94C7.83333 94 0 94 0 86.1667C0 78.3333 7.83333 54.8333 47 54.8333C86.1667 54.8333 94 78.3333 94 86.1667C94 94 86.1667 94 86.1667 94H7.83333ZM47 47C53.2326 47 59.2099 44.5241 63.617 40.117C68.0241 35.7099 70.5 29.7326 70.5 23.5C70.5 17.2674 68.0241 11.2901 63.617 6.88299C59.2099 2.47589 53.2326 0 47 0C40.7674 0 34.7901 2.47589 30.383 6.88299C25.9759 11.2901 23.5 17.2674 23.5 23.5C23.5 29.7326 25.9759 35.7099 30.383 40.117C34.7901 44.5241 40.7674 47 47 47V47Z" fill="#A5A5A5"/>
</svg>
