<svg width="94" height="94" viewBox="0 0 94 94" fill="none" xmlns="http://www.w3.org/2000/svg">
<path d="M34 0H16C7.16344 0 0 7.16344 0 16V34H3V16C3 8.8203 8.8203 3 16 3H34V0Z" fill="#A5A5A5"/>
<path d="M34 91H16C8.8203 91 3 85.1797 3 78V60H0V78C0 86.8366 7.16344 94 16 94H34V91Z" fill="#A5A5A5"/>
<path d="M60 94V91H78C85.1797 91 91 85.1797 91 78V60H94V78C94 86.8366 86.8366 94 78 94H60Z" fill="#A5A5A5"/>
<path d="M60 3V0H78C86.8366 0 94 7.16344 94 16V34H91V16C91 8.8203 85.1797 3 78 3H60Z" fill="#A5A5A5"/>
<path fill-rule="evenodd" clip-rule="evenodd" d="M21 21V32H32V21H21ZM20 10C14.4772 10 10 14.4772 10 20V43H43V10H20Z" fill="#A5A5A5"/>
<path fill-rule="evenodd" clip-rule="evenodd" d="M32 62H21V73H32V62ZM10 51V74C10 79.5228 14.4772 84 20 84H43V51H10Z" fill="#A5A5A5"/>
<path fill-rule="evenodd" clip-rule="evenodd" d="M73 21H62V32H73V21ZM51 10V43H84V20C84 14.4772 79.5228 10 74 10H51Z" fill="#A5A5A5"/>
<path fill-rule="evenodd" clip-rule="evenodd" d="M51 51H66V59H77V51H84V72H64V63H60V84H51V51ZM64 84H71V76H64V84ZM76 83.8C79.9183 83.0046 83.0046 79.9183 83.8 76H76L76 83.8Z" fill="#A5A5A5"/>
</svg>
